# xmcd
#
# Track frame offsets:
#	150
#	30678
#	64188
#	88845
#	113273
#	135300
#	155348
# Disc length: 2328 seconds
# Revision: 7
# Processed by: cddbd v1.5.1PL0 Copyright (c) Steve Scherf et al.
#
# Submitted via: libkcddb 0.10
#
DISCID=4d091607
DTITLE=Dave Brubeck Quartet - Time Out (Mastersound SBM)
DYEAR=1959
DGENRE=Jazz
TTITLE0=Blue Rondo a la Turk
TTITLE1=Strange Meadow Lark
TTITLE2=Take Five
TTITLE3=Three to Get Ready
TTITLE4=Kathy's Waltz
TTITLE5=Everybody's Jumpin'
TTITLE6=Pick Up Sticks
EXTD=Collector's Edition 1995
EXTD=20-bit Digital Transfers  using SONY's
EXTD="SBM" Process.
EXTD=24-Karat Gold Disk
EXTD=
EXTT0=
EXTT1=
EXTT2=
EXTT3=
EXTT4=
EXTT5=
EXTT6=
PLAYORDER=
